<svg width="28" height="28" viewBox="0 0 28 28" fill="none" xmlns="http://www.w3.org/2000/svg">
<g id="Frame">
<path id="Vector" d="M25.8813 13.8086L15.3157 3.24844L14.6075 2.54023C14.2711 2.20664 13.7297 2.20664 13.3934 2.54023L2.11956 13.8086C1.78323 14.1449 1.60276 14.5906 1.6055 15.0664C1.61644 16.0289 2.41761 16.7973 3.38011 16.7973H4.54222V25.7031H23.4586V16.7973H24.6453C25.1129 16.7973 25.5532 16.6141 25.884 16.2832C26.2149 15.9523 26.3953 15.5121 26.3953 15.0445C26.3953 14.5797 26.2121 14.1395 25.8813 13.8086ZM15.5317 23.7344H12.4692V18.1562H15.5317V23.7344ZM21.4899 14.8285V23.7344H17.2817V17.5C17.2817 16.8957 16.7922 16.4062 16.1879 16.4062H11.8129C11.2086 16.4062 10.7192 16.8957 10.7192 17.5V23.7344H6.51097V14.8285H3.88597L14.0032 4.71953L14.6348 5.35117L24.1176 14.8285H21.4899Z" fill="#DC6683"/>
</g>
</svg>
