<svg width="28" height="28" viewBox="0 0 28 28" fill="none" xmlns="http://www.w3.org/2000/svg">
<g id="Frame">
<path id="Vector" d="M24.1172 7.44023V3.9375C24.1172 3.45352 23.7262 3.0625 23.2422 3.0625H4.75781C4.27383 3.0625 3.88281 3.45352 3.88281 3.9375V7.44023C3.42617 7.46758 3.0625 7.84766 3.0625 8.3125V11.9137C3.0625 12.5809 3.19375 13.2289 3.45625 13.8387C3.57383 14.1176 3.71875 14.3801 3.88281 14.6289V24.0625C3.88281 24.5438 4.27383 24.9375 4.75781 24.9375H12.25V20.125H15.75V24.9375H23.2422C23.7262 24.9375 24.1172 24.5465 24.1172 24.0625V14.6289C24.284 14.3801 24.4262 14.1148 24.5437 13.8387C24.8035 13.2289 24.9375 12.5809 24.9375 11.9137V8.3125C24.9375 7.84766 24.5738 7.46758 24.1172 7.44023ZM22.1484 22.9715H17.5V19.25C17.5 18.766 17.109 18.375 16.625 18.375H11.375C10.891 18.375 10.5 18.766 10.5 19.25V22.9715H5.85156V16.3488C5.93086 16.3871 6.01289 16.4254 6.09766 16.4582C6.70742 16.7152 7.35547 16.8438 8.02266 16.8438C8.68984 16.8438 9.33516 16.7152 9.94766 16.4582C10.325 16.2996 10.6805 16.0973 11.0059 15.8539C11.0113 15.8512 11.0168 15.8512 11.0223 15.8539C11.3477 16.0973 11.7004 16.2996 12.0805 16.4582C12.6902 16.7152 13.3383 16.8438 14.0055 16.8438C14.6727 16.8438 15.318 16.7152 15.9305 16.4582C16.3078 16.2996 16.6633 16.0973 16.9887 15.8539C16.9941 15.8512 16.9996 15.8512 17.0051 15.8539C17.3305 16.0973 17.6832 16.2996 18.0633 16.4582C18.673 16.7152 19.3211 16.8438 19.9883 16.8438C20.6555 16.8438 21.3008 16.7152 21.9133 16.4582C21.9953 16.4227 22.0773 16.3871 22.1594 16.3488V22.9715H22.1484ZM22.1484 7.4375H5.85156V5.03125H22.1484V7.4375Z" fill="#DC6683"/>
</g>
</svg>
